<svg width="13" height="14" viewBox="0 0 13 14" fill="none" xmlns="http://www.w3.org/2000/svg">
<path fill-rule="evenodd" clip-rule="evenodd" d="M2.73697 4.88278C2.80219 4.10461 3.00742 3.12811 3.45383 2.27411C4.01404 1.20236 4.99124 0.270996 6.55762 0.270996C8.12491 0.270996 9.09665 1.20352 9.64944 2.27679C10.0891 3.13037 10.2869 4.1059 10.3464 4.8837C11.6086 5.23788 12.5342 6.39709 12.5342 7.77246V10.9712C12.5342 12.6281 11.191 13.9712 9.53418 13.9712H3.5459C1.88904 13.9712 0.545898 12.6281 0.545898 10.9712V7.77246C0.545898 6.39587 1.47305 5.23587 2.73697 4.88278ZM3.75256 4.77246C3.82513 4.13388 4.00333 3.38153 4.34006 2.73737C4.78738 1.88162 5.47662 1.271 6.55762 1.271C7.63763 1.271 8.32047 1.88046 8.76044 2.73468C9.09256 3.37952 9.26498 4.13321 9.33234 4.77246H3.75256ZM7.3584 9.37207C7.3584 9.82404 6.992 10.1904 6.54004 10.1904C6.08807 10.1904 5.72168 9.82404 5.72168 9.37207C5.72168 8.9201 6.08807 8.55371 6.54004 8.55371C6.992 8.55371 7.3584 8.9201 7.3584 9.37207Z" fill="#666666"/>
</svg>
