<svg width="16" height="16" viewBox="0 0 16 16" fill="none" xmlns="http://www.w3.org/2000/svg">
<path d="M8 15C11.866 15 15 11.866 15 8C15 4.13401 11.866 1 8 1C4.13401 1 1 4.13401 1 8C1 11.866 4.13401 15 8 15Z" fill="#378FE9"/>
<path fill-rule="evenodd" clip-rule="evenodd" d="M11.93 7.25H11.38C11.33 7.25 11.23 7.06 10.98 6.79C10.61 6.39 10.2 5.88 9.91002 5.6C9.18946 4.97644 8.6012 4.21476 8.18002 3.36C7.94002 2.85 7.92002 2.62 7.43002 2.62C7.23747 2.64719 7.06202 2.74533 6.93807 2.89518C6.81413 3.04502 6.75063 3.23576 6.76002 3.43C6.76002 3.57 6.83002 4.06 6.86002 4.23C7.0729 5.01232 7.41057 5.7552 7.86002 6.43H4.12002C3.99819 6.42913 3.87752 6.45357 3.76563 6.50177C3.65374 6.54997 3.55308 6.62087 3.47002 6.71C3.38655 6.79705 3.3228 6.90105 3.28311 7.01494C3.24343 7.12882 3.22873 7.24992 3.24002 7.37C3.25543 7.60429 3.36081 7.82356 3.53413 7.98197C3.70744 8.14038 3.93528 8.22566 4.17002 8.22H4.33002C4.12294 8.22763 3.92644 8.31338 3.78002 8.46C3.64238 8.60579 3.56704 8.79952 3.57002 9C3.57175 9.2015 3.64853 9.39512 3.78537 9.54305C3.9222 9.69098 4.10926 9.78259 4.31002 9.8C4.18782 9.89349 4.09517 10.0202 4.04318 10.165C3.99118 10.3099 3.98206 10.4666 4.01688 10.6165C4.05171 10.7663 4.12902 10.903 4.23954 11.01C4.35006 11.1171 4.48911 11.19 4.64002 11.22C4.54145 11.3853 4.50929 11.5819 4.55002 11.77C4.60275 11.9538 4.71459 12.1152 4.86824 12.2291C5.02189 12.3429 5.20879 12.403 5.40002 12.4H7.69002C7.98999 12.3986 8.28873 12.3617 8.58002 12.29L10 11.89H11.9C12.92 11.85 13.19 7.25 11.93 7.25Z" fill="#D0E8FF"/>
<path d="M7.43003 6.43001H4.11003C3.98364 6.42883 3.85847 6.45489 3.74306 6.50642C3.62764 6.55794 3.52468 6.63373 3.44117 6.72862C3.35767 6.82351 3.29559 6.93527 3.25916 7.0563C3.22272 7.17733 3.21279 7.30479 3.23003 7.43001C3.25022 7.66162 3.35735 7.87701 3.52989 8.03284C3.70242 8.18868 3.92756 8.27342 4.16003 8.27001H4.32003C4.11296 8.27764 3.91645 8.36339 3.77003 8.51001C3.69944 8.58463 3.6445 8.67261 3.60844 8.76879C3.57237 8.86496 3.55591 8.96738 3.56003 9.07001C3.56371 9.27194 3.64089 9.4656 3.77711 9.61471C3.91333 9.76382 4.09925 9.85814 4.30003 9.88001C4.2044 9.95503 4.12688 10.0506 4.07322 10.1597C4.01955 10.2687 3.99112 10.3885 3.99003 10.51C3.98864 10.6981 4.05275 10.8808 4.17135 11.0267C4.28995 11.1727 4.45565 11.2729 4.64003 11.31C4.54082 11.4788 4.50869 11.6787 4.55003 11.87C4.60309 12.0529 4.71533 12.2129 4.86916 12.3252C5.02299 12.4374 5.2097 12.4953 5.40003 12.49H7.69003C7.99 12.4886 8.28874 12.4517 8.58003 12.38L10 11.91H11.9C12.9 11.91 13.17 7.27001 11.9 7.27001C11.7168 7.2801 11.5332 7.2801 11.35 7.27001C11.35 7.27001 11.2 7.08001 10.95 6.81001C10.58 6.41001 10.17 5.90001 9.88003 5.62001C9.16822 4.99159 8.59008 4.22642 8.18003 3.37001C8.09876 3.18227 7.991 3.00716 7.86003 2.85001C7.69348 2.70995 7.47858 2.6409 7.26162 2.65773C7.04465 2.67457 6.84298 2.77593 6.70003 2.94001C6.59639 3.05209 6.51193 3.18047 6.45003 3.32001C6.41091 3.41705 6.38079 3.51747 6.36003 3.62001C6.3332 3.90194 6.3569 4.1864 6.43003 4.46001C6.4897 4.74887 6.58022 5.03048 6.70003 5.30001C6.88949 5.65252 7.11039 5.98721 7.36003 6.30001C7.39088 6.31902 7.41528 6.3469 7.43003 6.38001" stroke="#004182" stroke-linecap="round" stroke-linejoin="round"/>
</svg>
