<svg width="106" height="90" viewBox="0 0 106 90" fill="none" xmlns="http://www.w3.org/2000/svg">
<path d="M94.4404 89.2689C86.6279 88.6901 78.858 87.7254 71.0941 86.7245C65.1088 85.9528 59.1174 85.2232 53.1928 84.0897C48.9436 83.2758 44.9676 81.5936 40.9552 80.0441C28.4868 75.2268 16.2249 69.915 3.99934 64.5128C1.58337 63.4456 0.593903 61.667 0.575692 59.2312C0.551411 55.7583 1.70476 52.8522 5.01306 51.1761C5.46226 50.947 5.38943 50.6938 5.36515 50.32C5.07377 46.1296 7.39866 43.3381 11.5932 42.8437C13.1047 42.6628 14.513 43.0487 15.8424 43.7481C16.8015 44.2485 17.7121 44.8333 18.5073 45.5569C23.1632 49.7954 28.6143 52.8221 34.1261 55.7644C34.2839 55.8488 34.4478 55.9211 34.5996 56.0116C37.3251 57.6817 40.1903 58.7609 43.4804 58.7609C46.4548 58.7609 49.4293 59.0985 52.428 59.195C50.6494 58.2183 48.7615 57.537 46.8494 56.8918C44.8705 56.2226 42.928 55.487 41.3133 54.1063C38.867 52.0262 38.2842 48.6197 40.0568 46.1176C41.7321 43.7481 44.1239 42.6568 47.0255 42.8558C49.6539 43.0366 52.2155 43.7119 54.6861 44.5439C58.6682 45.8824 62.7353 46.3889 66.9116 46.6481C72.3263 46.9858 77.565 48.2158 82.3605 50.8807C86.2819 53.0572 89.3353 56.1261 91.5206 60.015C91.8605 60.6179 92.2065 60.8229 92.8681 60.7144C93.9669 60.5395 95.0717 60.3767 96.1825 60.3044C97.1356 60.2441 102.483 61.251 103.71 64.2475C104.468 66.1045 105.154 67.9676 105.458 69.9512C105.482 70.12 105.446 70.3129 105.676 70.3792V75.5222C105.276 75.8538 105.361 76.3482 105.264 76.7763C104.329 80.9063 102.556 84.6505 99.9704 88.0148C99.4483 88.6961 98.811 89.1784 97.9247 89.2628C97.1234 89.2628 96.3221 89.2628 95.5209 89.2689C95.1627 89.2689 94.8046 89.2689 94.4404 89.2689ZM100.942 73.4421C100.923 70.4395 100.262 68.2087 99.2784 66.0382C98.7988 64.9831 98.216 64.6575 97.0384 64.8926C95.2477 65.2484 93.4266 65.5197 91.5812 65.4353C89.8391 65.3569 88.5461 64.6575 87.7206 63.0115C85.5595 58.7187 82.1723 55.692 77.7046 53.8712C72.6784 51.8212 67.3973 51.1038 62.0008 51.0796C60.8414 51.0736 59.7305 50.9349 58.6136 50.5973C54.8015 49.4578 51.0075 48.2338 47.0679 47.5706C46.2181 47.4259 45.4897 47.6068 44.8098 48.0228C43.529 48.8066 43.5047 49.8316 44.7066 50.7299C45.7568 51.5138 46.9829 51.9479 48.2091 52.3518C51.8634 53.5577 55.3903 55.071 58.8139 56.8074C60.2769 57.549 61.8248 58.2243 62.8385 59.605C64.0647 61.2811 63.3241 63.3612 61.3209 63.946C60.6593 64.139 59.9794 64.1872 59.2935 64.1752C51.9302 64.0305 44.5912 63.5119 37.2462 62.9452C29.7555 62.3664 22.5804 60.7144 15.7332 57.6153C13.7117 56.6989 11.6114 55.9211 9.4322 55.4388C6.87662 54.872 5.4501 56.0236 5.29835 58.6283C5.24371 59.5447 5.55331 60.027 6.41529 60.4069C17.8213 65.4835 29.3549 70.2587 40.8945 75.0218C49.065 78.3921 57.4966 80.442 66.2682 81.3525C71.5493 81.9011 76.8123 82.6668 82.0813 83.324C86.6765 83.8968 91.2899 84.3309 95.9094 84.6685C96.3403 84.6987 96.6499 84.5781 96.8988 84.1922C99.1752 80.7315 100.778 77.0476 100.936 73.4421H100.942ZM23.3271 55.3363C23.3089 55.0167 23.0903 54.9263 22.9143 54.8178C20.8079 53.5155 18.8594 52.0081 16.9654 50.4104C15.8242 49.4457 14.7073 48.4207 13.3233 47.7756C12.4674 47.3777 11.6479 47.432 10.8648 47.9143C10.1242 48.3665 9.96642 49.096 10.106 49.8798C10.1789 50.3019 10.191 50.7601 10.8284 50.9108C14.5009 51.8092 17.9063 53.4552 21.4271 54.7756C22.0402 55.0047 22.629 55.3423 23.3331 55.3363H23.3271Z" fill="#493D57"/>
<path d="M97.9247 89.2627C97.9004 89.323 97.8943 89.3893 97.9065 89.4496H95.533C95.533 89.3893 95.533 89.329 95.5208 89.2687C96.3221 89.2687 97.1234 89.2687 97.9247 89.2627Z" fill="#A9A3AF"/>
<path d="M95.5209 89.2688C95.5269 89.3291 95.533 89.3894 95.533 89.4497H94.4525C94.4525 89.3894 94.4525 89.3291 94.4404 89.2688C94.7985 89.2688 95.1566 89.2688 95.5209 89.2688Z" fill="#D0CDD4"/>
<path d="M21.5546 0.476151C25.3303 0.458064 28.6689 1.66391 31.528 4.10576C32.0743 4.57001 32.3536 4.54589 32.8999 4.07561C37.7683 -0.168978 44.6641 -0.886458 50.3641 2.2186C55.9488 5.25734 59.166 11.6604 58.2737 17.8765C57.7577 21.4639 56.2098 24.5147 53.6481 27.0711C47.2136 33.4983 40.7791 39.9315 34.3386 46.3587C32.7542 47.9444 31.5766 47.9504 30.0165 46.3949C23.497 39.8953 16.9776 33.4018 10.4702 26.8903C6.08749 22.507 4.837 15.6638 7.31368 9.82751C9.72358 4.14796 15.3022 0.494239 21.5546 0.482181V0.476151ZM21.2935 5.20308C17.4389 5.02823 13.4022 7.7233 11.6964 11.6845C9.91784 15.8145 10.792 20.4269 13.8999 23.5621C16.4495 26.1306 18.9807 28.7111 21.5363 31.2735C24.8507 34.5956 28.2015 37.8876 31.4977 41.2278C32.0319 41.7644 32.3536 41.8066 32.8331 41.2218C33.3248 40.6128 33.8772 40.0461 34.4357 39.4914C39.7168 34.2278 45.0101 28.9884 50.2852 23.7128C53.0897 20.9093 54.1702 17.551 53.4357 13.638C52.0274 6.0954 43.013 2.52006 36.7909 7.07214C35.6983 7.87403 34.7635 8.88694 33.7194 9.75516C32.6328 10.6595 31.4734 10.6173 30.4293 9.67074C29.9255 9.21252 29.458 8.71813 28.9724 8.23579C26.9449 6.21599 24.5047 5.18499 21.2875 5.21514L21.2935 5.20308Z" fill="#77280C"/>
<path d="M100.942 73.442C100.784 77.0414 99.1812 80.7313 96.9049 84.1921C96.6499 84.578 96.3464 84.6986 95.9154 84.6684C91.2959 84.3308 86.6825 83.8967 82.0873 83.3239C76.8183 82.6667 71.5554 81.901 66.2743 81.3523C57.5027 80.4419 49.0772 78.392 40.9005 75.0216C29.3549 70.2646 17.8274 65.4834 6.42136 60.4068C5.55938 60.0209 5.24978 59.5446 5.30441 58.6281C5.46224 56.0235 6.88875 54.8719 9.43826 55.4387C11.6175 55.921 13.7178 56.6988 15.7392 57.6152C22.5865 60.7082 29.7555 62.3663 37.2523 62.9451C44.5973 63.5118 51.9363 64.0303 59.2995 64.175C59.9855 64.1871 60.6653 64.1389 61.327 63.9459C63.3302 63.3611 64.0708 61.281 62.8446 59.6049C61.8308 58.2242 60.289 57.5489 58.82 56.8073C55.3963 55.0709 51.8695 53.5636 48.2152 52.3517C46.989 51.9477 45.7689 51.5136 44.7126 50.7298C43.5046 49.8315 43.5289 48.8065 44.8158 48.0227C45.4957 47.6067 46.2302 47.4318 47.074 47.5705C51.0197 48.2337 54.8075 49.4516 58.6197 50.5972C59.7366 50.9288 60.8414 51.0735 62.0069 51.0795C67.3973 51.1097 72.6784 51.8211 77.7107 53.8711C82.1723 55.6919 85.5656 58.7186 87.7266 63.0114C88.5522 64.6574 89.8451 65.3568 91.5873 65.4351C93.4327 65.5196 95.2538 65.2482 97.0445 64.8925C98.2282 64.6574 98.8049 64.9769 99.2844 66.0381C100.274 68.2146 100.929 70.4454 100.948 73.442H100.942Z" fill="#BAA8D0"/>
<path d="M23.3331 55.3303C22.629 55.3423 22.0402 54.9987 21.4271 54.7696C17.9063 53.4552 14.5009 51.8032 10.8284 50.9048C10.191 50.7481 10.1789 50.2959 10.106 49.8738C9.97248 49.09 10.1303 48.3605 10.8648 47.9083C11.6479 47.4259 12.4734 47.3717 13.3233 47.7696C14.7073 48.4147 15.8242 49.4397 16.9654 50.4044C18.8533 52.0021 20.8018 53.5094 22.9143 54.8118C23.0903 54.9203 23.3089 55.0107 23.3271 55.3303H23.3331Z" fill="#9882B0"/>
<path d="M21.2935 5.19712C24.5108 5.16698 26.945 6.204 28.9785 8.21777C29.4641 8.70011 29.9255 9.19451 30.4354 9.65273C31.4855 10.5993 32.6389 10.6415 33.7255 9.73714C34.7695 8.86893 35.7044 7.85602 36.797 7.05413C43.0191 2.50205 52.0334 6.07739 53.4417 13.62C54.1701 17.533 53.0957 20.8912 50.2912 23.6948C45.0222 28.9644 39.7229 34.2098 34.4417 39.4734C33.8833 40.0281 33.337 40.5948 32.8392 41.2038C32.3596 41.7946 32.0379 41.7524 31.5038 41.2098C28.2015 37.8696 24.8568 34.5776 21.5424 31.2555C18.9868 28.6931 16.4555 26.1126 13.906 23.5441C10.798 20.4149 9.92393 15.7965 11.7025 11.6665C13.4083 7.70529 17.445 5.01022 21.2996 5.18506L21.2935 5.19712Z" fill="#DE704D"/>
</svg>
