<svg width="16" height="16" viewBox="0 0 16 16" fill="none" xmlns="http://www.w3.org/2000/svg">
<g clip-path="url(#clip0_1_4700)">
<path d="M8 15C11.866 15 15 11.866 15 8C15 4.13401 11.866 1 8 1C4.13401 1 1 4.13401 1 8C1 11.866 4.13401 15 8 15Z" fill="#F5BB5C"/>
<path fill-rule="evenodd" clip-rule="evenodd" d="M8.82005 13.4H7.22005C7.07684 13.4 6.93949 13.3431 6.83822 13.2418C6.73695 13.1406 6.68005 13.0032 6.68005 12.86V11.53H9.36005V12.86C9.36005 13.0032 9.30316 13.1406 9.20189 13.2418C9.10062 13.3431 8.96327 13.4 8.82005 13.4Z" fill="#FFE1B2"/>
<path fill-rule="evenodd" clip-rule="evenodd" d="M6.69006 11.79V11.53C6.69227 11.1901 6.6382 10.8522 6.53006 10.53C6.38982 10.247 6.2115 9.98458 6.00006 9.74999C5.63062 9.44815 5.3324 9.06846 5.12669 8.63802C4.92098 8.20759 4.81286 7.73704 4.81006 7.25999C4.81006 6.40864 5.14825 5.59217 5.75025 4.99017C6.35224 4.38818 7.16871 4.04999 8.02006 4.04999C8.8714 4.04999 9.68788 4.38818 10.2899 4.99017C10.8919 5.59217 11.2301 6.40864 11.2301 7.25999C11.2202 7.74699 11.1051 8.2261 10.8928 8.6645C10.6805 9.10291 10.376 9.49025 10.0001 9.79999C10.0701 9.74999 9.92006 9.85999 9.82006 9.99999C9.71973 10.1439 9.64216 10.3024 9.59006 10.47C9.49005 10.7939 9.43948 11.131 9.44006 11.47V11.73" fill="#FCF0DE"/>
<path d="M7.46006 4.78C6.99435 4.86063 6.56676 5.08845 6.24006 5.43C5.89889 5.76136 5.66245 6.18555 5.56006 6.65" stroke="white" stroke-width="2" stroke-linecap="round" stroke-linejoin="round"/>
<path d="M8.82005 13.4H7.22005C7.07684 13.4 6.93949 13.3431 6.83822 13.2418C6.73695 13.1406 6.68005 13.0032 6.68005 12.86V11.53H9.36005V12.86C9.36005 13.0032 9.30316 13.1406 9.20189 13.2418C9.10062 13.3431 8.96327 13.4 8.82005 13.4V13.4Z" stroke="#5D3B01" stroke-linecap="round" stroke-linejoin="round"/>
<path d="M7.99998 1.5V2.76M6.67998 11.79V11.53C6.68055 11.191 6.62999 10.8539 6.52998 10.53C6.46484 10.3624 6.37738 10.2043 6.26998 10.06C6.16309 9.9033 6.03898 9.75907 5.89998 9.63C5.76657 9.50994 5.64285 9.37953 5.52998 9.24C5.06622 8.67648 4.81182 7.96981 4.80998 7.24V7.24C4.80998 6.38865 5.14817 5.57218 5.75016 4.97019C6.35215 4.3682 7.16863 4.03 8.01998 4.03C8.87132 4.03 9.6878 4.3682 10.2898 4.97019C10.8918 5.57218 11.23 6.38865 11.23 7.24C11.2181 7.96972 10.961 8.67421 10.5 9.24C10.3305 9.44947 10.1394 9.64052 9.92998 9.81L9.72998 10.02C9.63274 10.1643 9.55852 10.3229 9.50998 10.49C9.40997 10.8139 9.3594 11.151 9.35998 11.49V11.75L6.67998 11.79ZM4.59998 2.64L5.20998 3.43L4.59998 2.64ZM11.42 2.63L10.81 3.43L11.42 2.63Z" stroke="#5D3B01" stroke-linecap="round" stroke-linejoin="round"/>
</g>
<defs>
<clipPath id="clip0_1_4700">
<rect width="16" height="16" fill="white"/>
</clipPath>
</defs>
</svg>
