<svg width="31" height="24" viewBox="0 0 31 24" fill="none" xmlns="http://www.w3.org/2000/svg">
<path d="M2.91924 13.9131L0.942383 13.9133V12.3146L11.9388 4.70312L22.9386 12.3146V13.9131H20.9583V23.8838H13.9573V17.9079H10.0755V23.8838H2.91924V13.9131Z" fill="#666666"/>
<path fill-rule="evenodd" clip-rule="evenodd" d="M22.7607 4.91309C20.9464 4.91309 19.4756 6.3839 19.4756 8.19824C19.4756 10.0126 20.9464 11.4834 22.7607 11.4834C24.5751 11.4834 26.0459 10.0126 26.0459 8.19824C26.0459 6.3839 24.5751 4.91309 22.7607 4.91309ZM15.4756 8.19824C15.4756 4.17476 18.7373 0.913086 22.7607 0.913086C26.7842 0.913086 30.0459 4.17476 30.0459 8.19824C30.0459 12.2217 26.7842 15.4834 22.7607 15.4834C18.7373 15.4834 15.4756 12.2217 15.4756 8.19824Z" fill="#CC1016"/>
</svg>
