<svg width="15" height="14" viewBox="0 0 15 14" fill="none" xmlns="http://www.w3.org/2000/svg">
<path fill-rule="evenodd" clip-rule="evenodd" d="M9.57601 10.1229C8.63948 10.8722 7.45149 11.3202 6.15886 11.3202C3.1355 11.3202 0.68457 8.86925 0.68457 5.84588C0.68457 2.82251 3.1355 0.371582 6.15886 0.371582C9.18223 0.371582 11.6332 2.82251 11.6332 5.84588C11.6332 7.13835 11.1852 8.32621 10.4362 9.2627L13.9014 12.852C14.139 13.0895 14.139 13.4746 13.9014 13.7122C13.6639 13.9497 13.2788 13.9497 13.0412 13.7122L9.57601 10.1229ZM1.90108 5.84588C1.90108 3.49437 3.80735 1.58809 6.15886 1.58809C8.51037 1.58809 10.4166 3.49437 10.4166 5.84588C10.4166 6.99325 9.96281 8.03463 9.22485 8.80028C9.20428 8.81614 9.1845 8.8335 9.16564 8.85236C9.14677 8.87122 9.1294 8.89102 9.11353 8.91161C8.34785 9.64972 7.30637 10.1037 6.15886 10.1037C3.80735 10.1037 1.90108 8.19739 1.90108 5.84588Z" fill="#5F6163"/>
</svg>
