<svg width="24" height="23" viewBox="0 0 24 23" fill="none" xmlns="http://www.w3.org/2000/svg">
<path d="M19.1707 0.731934C18.6676 0.733101 18.1697 0.829731 17.7057 1.01625C17.2418 1.20277 16.8209 1.47548 16.4675 1.81866L1.75796 15.9149L1.70028 16.1939L0.682624 21.0971L0.392395 22.4058L1.75889 22.1277L6.87509 21.1524L7.16532 21.0962L21.8749 7C22.2339 6.66188 22.5191 6.25861 22.7137 5.81374C22.9084 5.36886 23.0086 4.89129 23.0086 4.40888C23.0086 3.92648 22.9084 3.4489 22.7137 3.00403C22.5191 2.55915 22.2339 2.15589 21.8749 1.81777C21.5213 1.47464 21.1002 1.20203 20.6361 1.01567C20.172 0.8293 19.674 0.732867 19.1707 0.731934ZM19.1707 2.43111C19.6396 2.43111 20.1121 2.63616 20.5661 3.07209C21.4712 3.93862 21.4712 4.87914 20.5661 5.74656L19.8982 6.35902L17.1354 3.71218L17.7754 3.07209C18.2303 2.63616 18.7019 2.43111 19.1707 2.43111ZM15.8285 4.96651L18.5893 7.61334L7.3402 18.3932C6.73291 17.2545 5.76606 16.3285 4.57745 15.7473L15.8285 4.96651ZM3.38677 17.1969C3.93731 17.4091 4.43741 17.7258 4.85702 18.128C5.27664 18.5301 5.60711 19.0094 5.8286 19.537L2.77562 20.1218L3.38677 17.1969Z" fill="#585C60"/>
<path d="M3.38677 17.1969C3.93731 17.4091 4.43741 17.7258 4.85702 18.128C5.27664 18.5301 5.60711 19.0094 5.8286 19.537L2.77562 20.1218L3.38677 17.1969Z" fill="#585C60"/>
<path d="M19.1707 2.43111C19.6396 2.43111 20.1121 2.63616 20.5661 3.07209C21.4712 3.93862 21.4712 4.87914 20.5661 5.74656L19.8982 6.35902L17.1354 3.71218L17.7754 3.07209C18.2303 2.63616 18.7019 2.43111 19.1707 2.43111Z" fill="#585C60"/>
</svg>
