<svg width="17" height="17" viewBox="0 0 17 17" fill="none" xmlns="http://www.w3.org/2000/svg">
<path d="M13.7 0C13.3329 0.000929271 12.9697 0.0778361 12.6312 0.226284C12.2927 0.374731 11.9857 0.591781 11.7278 0.864912L0.996265 12.0839L0.954189 12.306L0.21174 16.2084L0 17.25L0.996944 17.0286L4.72955 16.2524L4.94129 16.2077L15.6729 4.98868C15.9348 4.71957 16.1428 4.39862 16.2848 4.04455C16.4269 3.69048 16.5 3.31038 16.5 2.92644C16.5 2.5425 16.4269 2.1624 16.2848 1.80833C16.1428 1.45426 15.9348 1.13331 15.6729 0.864203C15.4149 0.591115 15.1077 0.374147 14.7691 0.22582C14.4305 0.0774925 14.0671 0.000742853 13.7 0ZM13.7 1.35236C14.042 1.35236 14.3868 1.51555 14.718 1.86251C15.3783 2.55217 15.3783 3.30072 14.718 3.99108L14.2307 4.47853L12.2151 2.37195L12.682 1.86251C13.0139 1.51555 13.358 1.35236 13.7 1.35236ZM11.2616 3.37025L13.2758 5.47683L5.06887 14.0564C4.62581 13.1501 3.92044 12.4132 3.05327 11.9505L11.2616 3.37025ZM2.18459 13.1042C2.58624 13.2732 2.9511 13.5252 3.25723 13.8453C3.56337 14.1654 3.80447 14.5468 3.96606 14.9667L1.73871 15.4322L2.18459 13.1042Z" fill="#0A66C2"/>
<path d="M2.18459 13.1042C2.58624 13.2732 2.9511 13.5252 3.25723 13.8453C3.56337 14.1654 3.80447 14.5468 3.96606 14.9667L1.73871 15.4322L2.18459 13.1042Z" fill="#0A66C2"/>
<path d="M13.7 1.35236C14.042 1.35236 14.3868 1.51555 14.718 1.86251C15.3783 2.55217 15.3783 3.30072 14.718 3.99108L14.2307 4.47853L12.2151 2.37195L12.682 1.86251C13.0139 1.51555 13.358 1.35236 13.7 1.35236Z" fill="#0A66C2"/>
</svg>
