<svg width="14" height="14" viewBox="0 0 14 14" fill="none" xmlns="http://www.w3.org/2000/svg">
<path d="M7 0C5.61553 0 4.26216 0.410543 3.11101 1.17971C1.95987 1.94888 1.06266 3.04213 0.532846 4.32122C0.00303298 5.6003 -0.13559 7.00776 0.134506 8.36563C0.404603 9.7235 1.07129 10.9708 2.05026 11.9497C3.02922 12.9287 4.2765 13.5954 5.63437 13.8655C6.99224 14.1356 8.3997 13.997 9.67879 13.4672C10.9579 12.9373 12.0511 12.0401 12.8203 10.889C13.5895 9.73785 14 8.38447 14 7C14 5.14348 13.2625 3.36301 11.9497 2.05025C10.637 0.737498 8.85652 0 7 0ZM2 7C2 5.91815 2.35089 4.86548 3 4L3.55 4.55C3.69233 4.68951 3.80544 4.85599 3.8827 5.03971C3.95996 5.22342 3.99984 5.4207 4 5.62V6.69C4.00018 6.88885 4.07931 7.07948 4.22 7.22L4.78 7.78C4.92052 7.92069 5.11116 7.99983 5.31 8H6V8.69C6.00018 8.88884 6.07931 9.07948 6.22 9.22L6.78 9.78C6.9207 9.92052 6.99983 10.1112 7 10.31V12C5.67392 12 4.40215 11.4732 3.46447 10.5355C2.52679 9.59785 2 8.32608 2 7ZM8.24 11.83L10.24 9.37C10.3295 9.259 10.3855 9.12479 10.4014 8.9831C10.4174 8.84141 10.3926 8.69811 10.33 8.57L9.75 7.41C9.68052 7.27433 9.57185 7.16269 9.4381 7.08957C9.30436 7.01646 9.15171 6.98525 9 7H6V6.81C6.00096 6.71654 6.02758 6.62513 6.07696 6.54577C6.12634 6.46641 6.19658 6.40215 6.28 6.36L6.66 6.17C6.76509 6.11564 6.88169 6.08727 7 6.08727C7.11832 6.08727 7.23491 6.11564 7.34 6.17L8 6.5L8.38 5.8C8.45958 5.65258 8.50084 5.48753 8.5 5.32V4.47C8.50062 4.27316 8.57564 4.08384 8.71 3.94L9.78 2.85C10.5827 3.38684 11.2127 4.14463 11.594 5.03181C11.9753 5.91899 12.0916 6.8976 11.9287 7.84942C11.7658 8.80124 11.3308 9.68553 10.6762 10.3955C10.0217 11.1054 9.1755 11.6106 8.24 11.85V11.83Z" fill="#666666"/>
</svg>
