<svg width="76" height="77" viewBox="0 0 76 77" fill="none" xmlns="http://www.w3.org/2000/svg">
<path d="M64.2901 0.931641H11.6322C5.38974 0.931641 0.305176 6.0162 0.305176 12.2586V64.9166C0.305176 71.159 5.38974 76.2436 11.6322 76.2436H64.2901C70.5325 76.2436 75.6171 71.159 75.6171 64.9166V12.2586C75.6171 6.0162 70.5325 0.931641 64.2901 0.931641ZM56.2857 42.1115L41.3844 42.0109L41.2837 56.9122C41.2837 58.7748 39.7231 60.3355 37.8604 60.3355C35.9474 60.3355 34.4372 58.7748 34.4372 56.9122L34.5379 42.0109L19.6366 41.9103C17.7236 41.9103 16.2133 40.3496 16.2133 38.4869C16.2133 36.6242 17.7739 35.0637 19.6366 35.0637L34.5379 35.1644L34.6385 20.263C34.6385 18.4004 36.1992 16.8398 38.0618 16.8398C39.9748 16.8398 41.4851 18.4004 41.4851 20.263L41.3844 35.1644L56.2857 35.2651C58.1987 35.2651 59.709 36.8256 59.709 38.6883C59.709 40.551 58.1484 42.1115 56.2857 42.1115Z" fill="#666666"/>
</svg>
