<svg width="16" height="16" viewBox="0 0 16 16" fill="none" xmlns="http://www.w3.org/2000/svg">
<path d="M8 1C9.85652 1 11.637 1.7375 12.9497 3.05025C14.2625 4.36301 15 6.14348 15 8C15 9.85652 14.2625 11.637 12.9497 12.9497C11.637 14.2625 9.85652 15 8 15C6.14348 15 4.36301 14.2625 3.05025 12.9497C1.7375 11.637 1 9.85652 1 8C1 6.14348 1.7375 4.36301 3.05025 3.05025C4.36301 1.7375 6.14348 1 8 1Z" fill="#D8D8D8"/>
<path d="M8 15C11.866 15 15 11.866 15 8C15 4.13401 11.866 1 8 1C4.13401 1 1 4.13401 1 8C1 11.866 4.13401 15 8 15Z" fill="#6DAE4F"/>
<path d="M7.99995 1C9.38442 1 10.7378 1.41055 11.8889 2.17972C13.0401 2.94888 13.9373 4.04214 14.4671 5.32122C14.9969 6.6003 15.1355 8.00777 14.8654 9.36563C14.5953 10.7235 13.9287 11.9708 12.9497 12.9497C11.9707 13.9287 10.7234 14.5954 9.36558 14.8655C8.00771 15.1356 6.60025 14.997 5.32116 14.4672C4.04208 13.9373 2.94883 13.0401 2.17966 11.889C1.41049 10.7379 0.999948 9.38447 0.999948 8C0.999948 6.14349 1.73745 4.36301 3.0502 3.05025C4.36295 1.7375 6.14343 1 7.99995 1ZM7.99995 2.47359e-06C6.14919 0.00145782 4.35618 0.644568 2.92641 1.81976C1.49664 2.99496 0.518564 4.62953 0.158821 6.445C-0.200922 8.26046 0.0799235 10.1445 0.953509 11.7761C1.8271 13.4077 3.23937 14.686 4.94973 15.3931C6.66009 16.1002 8.56271 16.1924 10.3334 15.654C12.1042 15.1156 13.6334 13.98 14.6607 12.4405C15.688 10.901 16.1497 9.05295 15.9673 7.21121C15.7848 5.36946 14.9694 3.64796 13.6599 2.34C12.9164 1.59733 12.0339 1.00842 11.0627 0.606911C10.0916 0.205406 9.05083 -0.000823887 7.99995 2.47359e-06Z" fill="white"/>
<path d="M12.13 9.22001C12.1097 8.43446 11.9887 7.65477 11.77 6.90001C11.1606 6.4008 10.7005 5.74344 10.44 5.00001C10.28 4.47001 10.17 4.28001 9.69999 4.27001C9.5089 4.29266 9.33414 4.38887 9.2128 4.53822C9.09145 4.68757 9.03305 4.87832 9.04999 5.07001C9.04999 5.31001 9.04999 5.56001 9.10999 5.79001C9.24704 6.44568 9.44111 7.08812 9.68999 7.71001L5.18999 4.33001C5.11493 4.25689 5.02538 4.20031 4.92711 4.16392C4.82885 4.12753 4.72404 4.11214 4.61946 4.11874C4.51488 4.12533 4.41285 4.15377 4.31993 4.20221C4.22701 4.25066 4.14528 4.31804 4.07999 4.40001C4.03174 4.48331 4.00044 4.57534 3.9879 4.6708C3.97535 4.76625 3.98182 4.86324 4.00691 4.95619C4.03201 5.04914 4.07524 5.1362 4.13412 5.21237C4.193 5.28854 4.26637 5.35231 4.34999 5.40001L6.59999 7.10001L7.18999 7.66001L3.61999 5.00001C3.52342 4.90434 3.4014 4.8384 3.26845 4.81004C3.1355 4.78168 2.99721 4.79208 2.86999 4.84001C2.74176 4.88507 2.6297 4.96701 2.54786 5.07553C2.46603 5.18405 2.41806 5.31433 2.40999 5.45001C2.40028 5.58433 2.42897 5.71865 2.49271 5.83728C2.55645 5.95591 2.65262 6.05397 2.76999 6.12001L4.99999 7.77001L6.34999 8.77001L3.44999 6.58001C3.37354 6.50912 3.28381 6.45407 3.18599 6.41803C3.08816 6.38199 2.98416 6.36567 2.87999 6.37001C2.67015 6.3886 2.47611 6.48921 2.33999 6.65001C2.02999 7.05001 2.27999 7.46001 2.59999 7.71001L4.84999 9.40001L5.99999 10.25L3.72999 8.55001C3.66068 8.47454 3.57645 8.41429 3.48263 8.37308C3.38882 8.33186 3.28746 8.31058 3.18499 8.31058C3.08253 8.31058 2.98117 8.33186 2.88736 8.37308C2.79354 8.41429 2.70931 8.47454 2.63999 8.55001C2.58013 8.63605 2.53871 8.73355 2.51834 8.83637C2.49797 8.9392 2.49909 9.04512 2.52163 9.14749C2.54417 9.24986 2.58764 9.34646 2.64931 9.43122C2.71099 9.51598 2.78952 9.58706 2.87999 9.64001L6.97999 12.64C7.57999 13.09 9.04999 13.48 9.69999 12.91" stroke="#057642" stroke-width="1.5" stroke-linecap="round" stroke-linejoin="round"/>
<path fill-rule="evenodd" clip-rule="evenodd" d="M12.6099 9.89999L12.1899 9.52999C12.1392 8.7934 11.9668 8.07029 11.6799 7.38999C11.0934 6.70012 10.6787 5.88107 10.4699 4.99999C10.3099 4.46999 10.1999 4.27999 9.7299 4.26999C9.53881 4.29265 9.36405 4.38885 9.24271 4.53821C9.12136 4.68756 9.06296 4.8783 9.0799 5.06999C9.0799 5.30999 9.0799 5.55999 9.1399 5.78999C9.25618 6.4214 9.44059 7.03834 9.6899 7.62999L9.4999 7.52999L5.1899 4.21999C5.11484 4.14687 5.02529 4.0903 4.92702 4.05391C4.82876 4.01752 4.72395 4.00212 4.61937 4.00872C4.51479 4.01531 4.41275 4.04375 4.31984 4.0922C4.22692 4.14064 4.14519 4.20802 4.0799 4.28999C4.0225 4.37569 3.98391 4.47258 3.96667 4.57427C3.94943 4.67597 3.95394 4.78016 3.9799 4.87999C4.00367 4.98053 4.04909 5.07468 4.11299 5.15586C4.1769 5.23703 4.25775 5.30329 4.3499 5.34999L6.5499 6.99999L7.1899 7.50999L3.6199 4.83999C3.54516 4.76665 3.4557 4.71001 3.35744 4.67381C3.25919 4.63761 3.15436 4.62267 3.0499 4.62999C2.94635 4.6363 2.84513 4.66346 2.75234 4.70986C2.65954 4.75626 2.57708 4.82093 2.5099 4.89999C2.4547 4.98668 2.41742 5.08355 2.40024 5.18488C2.38307 5.28621 2.38635 5.38995 2.4099 5.48999C2.42913 5.59609 2.47131 5.69672 2.53349 5.78481C2.59568 5.87291 2.67636 5.94635 2.7699 5.99999L4.9999 7.65999L6.3499 8.65999L3.4499 6.47999C3.37565 6.40537 3.28653 6.34722 3.18832 6.30932C3.09012 6.27141 2.98503 6.25461 2.8799 6.25999C2.77546 6.26696 2.67359 6.29543 2.58067 6.34361C2.48775 6.39179 2.40578 6.45865 2.3399 6.53999C2.28136 6.62487 2.24145 6.72119 2.22283 6.82261C2.2042 6.92403 2.20727 7.02824 2.23183 7.12839C2.2564 7.22853 2.3019 7.32234 2.36534 7.40362C2.42878 7.48491 2.50872 7.55184 2.5999 7.59999L4.8499 9.28999L5.9999 10.14L3.7299 8.44999C3.6625 8.37274 3.57957 8.31055 3.48653 8.26747C3.39349 8.2244 3.29242 8.2014 3.1899 8.19999C3.08611 8.20243 2.98388 8.22583 2.88936 8.2688C2.79484 8.31176 2.70999 8.37339 2.6399 8.44999C2.57869 8.53471 2.53612 8.63144 2.515 8.73381C2.49387 8.83618 2.49467 8.94186 2.51735 9.04389C2.54002 9.14593 2.58406 9.242 2.64655 9.32579C2.70904 9.40957 2.78857 9.47917 2.8799 9.52999L6.9999 12.64C7.29292 12.8634 7.62886 13.024 7.98675 13.1118C8.34463 13.1995 8.71677 13.2125 9.0799 13.15C9.28159 13.3065 9.52962 13.3914 9.7849 13.3914C10.0402 13.3914 10.2882 13.3065 10.4899 13.15C11.0899 12.69 10.8999 12.64 11.3399 12.02C11.8421 11.3637 12.2682 10.6524 12.6099 9.89999Z" fill="#DCF0CB"/>
<path d="M12.13 9.22001C12.1097 8.43446 11.9887 7.65477 11.77 6.90001C11.1606 6.4008 10.7005 5.74344 10.44 5.00001C10.28 4.47001 10.17 4.28001 9.69999 4.27001C9.5089 4.29266 9.33414 4.38887 9.2128 4.53822C9.09145 4.68757 9.03305 4.87832 9.04999 5.07001C9.04999 5.31001 9.04999 5.56001 9.10999 5.79001C9.24704 6.44568 9.44111 7.08812 9.68999 7.71001L5.18999 4.33001C5.11493 4.25689 5.02538 4.20031 4.92711 4.16392C4.82885 4.12753 4.72404 4.11214 4.61946 4.11874C4.51488 4.12533 4.41285 4.15377 4.31993 4.20221C4.22701 4.25066 4.14528 4.31804 4.07999 4.40001C4.03174 4.48331 4.00044 4.57534 3.9879 4.6708C3.97535 4.76625 3.98182 4.86324 4.00691 4.95619C4.03201 5.04914 4.07524 5.1362 4.13412 5.21237C4.193 5.28854 4.26637 5.35231 4.34999 5.40001L6.59999 7.10001L7.18999 7.66001L3.61999 5.00001C3.52342 4.90434 3.4014 4.8384 3.26845 4.81004C3.1355 4.78168 2.99721 4.79208 2.86999 4.84001C2.74176 4.88507 2.6297 4.96701 2.54786 5.07553C2.46603 5.18405 2.41806 5.31433 2.40999 5.45001C2.40028 5.58433 2.42897 5.71865 2.49271 5.83728C2.55645 5.95591 2.65262 6.05397 2.76999 6.12001L4.99999 7.77001L6.34999 8.77001L3.44999 6.58001C3.37354 6.50912 3.28381 6.45407 3.18599 6.41803C3.08816 6.38199 2.98416 6.36567 2.87999 6.37001C2.67015 6.3886 2.47611 6.48921 2.33999 6.65001C2.02999 7.05001 2.27999 7.46001 2.59999 7.71001L4.84999 9.40001L5.99999 10.25L3.72999 8.55001C3.66068 8.47454 3.57645 8.41429 3.48263 8.37308C3.38882 8.33186 3.28746 8.31058 3.18499 8.31058C3.08253 8.31058 2.98117 8.33186 2.88736 8.37308C2.79354 8.41429 2.70931 8.47454 2.63999 8.55001C2.58013 8.63605 2.53871 8.73355 2.51834 8.83637C2.49797 8.9392 2.49909 9.04512 2.52163 9.14749C2.54417 9.24986 2.58764 9.34646 2.64931 9.43122C2.71099 9.51598 2.78952 9.58706 2.87999 9.64001L6.97999 12.64C7.79757 13.1309 8.75045 13.3481 9.69999 13.26" stroke="#057642" stroke-width="0.5" stroke-linecap="round" stroke-linejoin="round"/>
<path d="M14.7699 11.39C14.5683 11.173 14.412 10.9181 14.3099 10.64C14.2962 10.4208 14.2628 10.2032 14.2099 9.99001C14.1787 9.60627 14.0552 9.23576 13.8499 8.91001C13.2685 8.22056 12.8544 7.40601 12.6399 6.53001C12.4799 6.00001 12.3699 5.81001 11.8999 5.80001C11.7055 5.81734 11.5258 5.91079 11.3999 6.06001C11.3406 6.1357 11.2968 6.22237 11.2711 6.31504C11.2453 6.40771 11.2381 6.50456 11.2499 6.60001C11.25 6.84126 11.2701 7.08208 11.3099 7.32001C11.4899 8.24001 11.6799 9.00001 11.6999 9.05001L7.40995 5.84001C7.33533 5.7659 7.24614 5.70808 7.14803 5.67021C7.04992 5.63234 6.94501 5.61525 6.83995 5.62001C6.73415 5.62564 6.63089 5.65455 6.53755 5.70468C6.4442 5.75481 6.36308 5.82492 6.29995 5.91001C6.25128 5.99272 6.21939 6.08422 6.20612 6.17927C6.19285 6.27431 6.19845 6.37104 6.22259 6.46392C6.24674 6.55681 6.28897 6.64401 6.34686 6.72056C6.40474 6.7971 6.47715 6.86148 6.55995 6.91001L8.80995 8.61001L9.48995 9.17001L5.88995 6.46001C5.81533 6.3859 5.72614 6.32808 5.62803 6.29021C5.52992 6.25234 5.42501 6.23525 5.31995 6.24001C5.16159 6.24165 5.00832 6.29618 4.88452 6.39495C4.76072 6.49371 4.67349 6.63102 4.63671 6.78506C4.59992 6.9391 4.61569 7.10101 4.68151 7.24505C4.74733 7.38909 4.85942 7.507 4.99995 7.58001L7.24995 9.28001L8.59995 10.28L5.70995 8.09001C5.63587 8.01619 5.5468 7.95914 5.44876 7.92274C5.35072 7.88633 5.246 7.87142 5.14169 7.87901C5.03739 7.88659 4.93593 7.9165 4.84419 7.96671C4.75245 8.01691 4.67256 8.08625 4.60995 8.17001C4.29995 8.57001 4.53995 8.98001 4.86995 9.23001L7.11995 10.91L8.23995 11.76L5.99995 10.06C5.86573 9.93048 5.68648 9.85809 5.49995 9.85809C5.31342 9.85809 5.13417 9.93048 4.99995 10.06C4.93532 10.1404 4.88926 10.2341 4.86506 10.3343C4.84086 10.4346 4.83911 10.539 4.85995 10.64C4.87953 10.7408 4.91986 10.8364 4.9784 10.9208C5.03693 11.0051 5.11238 11.0764 5.19995 11.13L9.19995 14.13C9.53363 14.3805 9.92012 14.5516 10.3299 14.63L10.9099 14.72C11.2155 14.7618 11.5105 14.8601 11.7799 15.01C11.973 15.0848 12.1869 15.0848 12.3799 15.01C13.0819 14.7594 13.6965 14.3115 14.1499 13.72C14.5682 13.1332 14.811 12.4396 14.8499 11.72C14.8797 11.5816 14.8797 11.4384 14.8499 11.3L14.7699 11.39Z" stroke="#057642" stroke-width="1.5" stroke-linecap="round" stroke-linejoin="round"/>
<path fill-rule="evenodd" clip-rule="evenodd" d="M14.8099 11.34L14.3599 11C14.3114 10.2631 14.139 9.5396 13.8499 8.86C13.2685 8.17054 12.8544 7.356 12.6399 6.48C12.4799 5.95 12.3699 5.76 11.8999 5.75C11.7055 5.76732 11.5258 5.86078 11.3999 6.01C11.3406 6.08569 11.2968 6.17236 11.271 6.26503C11.2453 6.3577 11.2381 6.45455 11.2499 6.55C11.25 6.79124 11.2701 7.03207 11.3099 7.27C11.4899 8.2 11.6799 8.96 11.6999 9L7.4099 5.79C7.33484 5.71688 7.24529 5.6603 7.14702 5.62391C7.04875 5.58752 6.94395 5.57213 6.83937 5.57873C6.73479 5.58532 6.63275 5.61376 6.53984 5.6622C6.44692 5.71065 6.36518 5.77803 6.2999 5.86C5.9899 6.27 6.2399 6.67 6.5599 6.92L8.8099 8.61L9.4899 9.17L5.8899 6.41C5.81484 6.33688 5.72529 6.2803 5.62702 6.24391C5.52875 6.20752 5.42395 6.19213 5.31937 6.19873C5.21479 6.20532 5.11275 6.23376 5.01984 6.2822C4.92692 6.33065 4.84518 6.39803 4.7799 6.48C4.4699 6.88 4.7199 7.29 5.0399 7.54L7.2899 9.23L8.6399 10.23L5.7099 8C5.63593 7.92557 5.54659 7.86822 5.44813 7.83194C5.34967 7.79567 5.24448 7.78135 5.1399 7.79C5.03634 7.79451 4.93507 7.82198 4.84342 7.8704C4.75176 7.91882 4.672 7.987 4.6099 8.07C4.5485 8.15385 4.50599 8.25001 4.48527 8.35185C4.46456 8.4537 4.46614 8.55882 4.4899 8.66C4.5166 8.76067 4.56425 8.85457 4.62973 8.93556C4.69521 9.01655 4.77705 9.08281 4.8699 9.13L7.1199 10.82L8.2399 11.67L5.9999 10C5.93473 9.93348 5.85693 9.88063 5.77108 9.84456C5.68522 9.80848 5.59303 9.7899 5.4999 9.7899C5.40678 9.7899 5.31458 9.80848 5.22873 9.84456C5.14287 9.88063 5.06508 9.93348 4.9999 10C4.92952 10.0814 4.87855 10.1776 4.85083 10.2816C4.82311 10.3855 4.81938 10.4944 4.8399 10.6C4.85779 10.7066 4.89944 10.8078 4.96176 10.896C5.02408 10.9843 5.10547 11.0575 5.1999 11.11L9.1999 14.11C9.80689 14.4705 10.4944 14.6733 11.1999 14.7C11.4571 14.8545 11.7243 14.9914 11.9999 15.11C12.8018 14.9578 13.5164 14.5076 13.9999 13.85C14.521 13.0905 14.8189 12.2002 14.8599 11.28L14.8099 11.34Z" fill="#DDF6D1"/>
<path d="M14.7699 11.39C14.5683 11.173 14.412 10.9181 14.3099 10.64C14.2962 10.4208 14.2628 10.2032 14.2099 9.99001C14.1787 9.60627 14.0552 9.23576 13.8499 8.91001C13.2685 8.22056 12.8544 7.40601 12.6399 6.53001C12.4799 6.00001 12.3699 5.81001 11.8999 5.80001C11.7055 5.81734 11.5258 5.91079 11.3999 6.06001C11.3406 6.1357 11.2968 6.22237 11.2711 6.31504C11.2453 6.40771 11.2381 6.50456 11.2499 6.60001C11.25 6.84126 11.2701 7.08208 11.3099 7.32001C11.4899 8.24001 11.6799 9.00001 11.6999 9.05001L7.40995 5.84001C7.33533 5.7659 7.24614 5.70808 7.14803 5.67021C7.04992 5.63234 6.94501 5.61525 6.83995 5.62001C6.73415 5.62564 6.63089 5.65455 6.53755 5.70468C6.4442 5.75481 6.36308 5.82492 6.29995 5.91001C6.25128 5.99272 6.21939 6.08422 6.20612 6.17927C6.19285 6.27431 6.19845 6.37104 6.22259 6.46392C6.24674 6.55681 6.28897 6.64401 6.34686 6.72056C6.40474 6.7971 6.47715 6.86148 6.55995 6.91001L8.80995 8.61001L9.48995 9.17001L5.88995 6.46001C5.81533 6.3859 5.72614 6.32808 5.62803 6.29021C5.52992 6.25234 5.42501 6.23525 5.31995 6.24001C5.16159 6.24165 5.00832 6.29618 4.88452 6.39495C4.76072 6.49371 4.67349 6.63102 4.63671 6.78506C4.59992 6.9391 4.61569 7.10101 4.68151 7.24505C4.74733 7.38909 4.85942 7.507 4.99995 7.58001L7.24995 9.28001L8.59995 10.28L5.70995 8.09001C5.63587 8.01619 5.5468 7.95914 5.44876 7.92274C5.35072 7.88633 5.246 7.87142 5.14169 7.87901C5.03739 7.88659 4.93593 7.9165 4.84419 7.96671C4.75245 8.01691 4.67256 8.08625 4.60995 8.17001C4.29995 8.57001 4.53995 8.98001 4.86995 9.23001L7.11995 10.91L8.23995 11.76L5.99995 10.06C5.86573 9.93048 5.68648 9.85809 5.49995 9.85809C5.31342 9.85809 5.13417 9.93048 4.99995 10.06C4.93532 10.1404 4.88926 10.2341 4.86506 10.3343C4.84086 10.4346 4.83911 10.539 4.85995 10.64C4.87953 10.7408 4.91986 10.8364 4.9784 10.9208C5.03693 11.0051 5.11238 11.0764 5.19995 11.13L9.19995 14.13C9.53363 14.3805 9.92012 14.5516 10.3299 14.63L10.9099 14.72C11.2155 14.7618 11.5105 14.8601 11.7799 15.01C11.973 15.0848 12.1869 15.0848 12.3799 15.01C13.0819 14.7594 13.6965 14.3115 14.1499 13.72C14.5682 13.1332 14.811 12.4396 14.8499 11.72C14.8797 11.5816 14.8797 11.4384 14.8499 11.3L14.7699 11.39Z" stroke="#057642" stroke-width="0.5" stroke-linecap="round" stroke-linejoin="round"/>
<path d="M8.82998 2.82001L8.09998 3.74001" stroke="#057642" stroke-linecap="round" stroke-linejoin="round"/>
<path d="M5.48999 1.62L5.55999 2.82" stroke="#057642" stroke-linecap="round" stroke-linejoin="round"/>
<path d="M7.53989 1.63L6.88989 3.19" stroke="#057642" stroke-linecap="round" stroke-linejoin="round"/>
</svg>
