<svg width="92" height="105" viewBox="0 0 92 105" fill="none" xmlns="http://www.w3.org/2000/svg">
<path d="M25.8037 104.837C25.7854 104.892 25.7794 104.946 25.7854 105H22.9567C22.9567 104.952 22.9507 104.898 22.9446 104.849C23.8976 104.849 24.8506 104.843 25.8037 104.837Z" fill="#A99DA9"/>
<path d="M22.9445 104.849C22.9506 104.898 22.9566 104.952 22.9566 105H21.2569C21.2569 104.946 21.2569 104.892 21.2509 104.837L22.9445 104.849Z" fill="#D3CCD2"/>
<path d="M33.0091 5.51151C34.472 4.8905 36.026 4.60109 37.5618 4.26948C38.2234 4.13081 38.6301 3.92582 38.7697 3.27466C38.8669 5.58989 39.8745 6.47016 42.1812 6.24708C45.7931 5.89738 49.3867 6.01796 52.9681 6.62089C71.7617 9.78021 86.6156 25.8421 86.7856 46.3958C86.8281 51.4604 85.8326 56.3621 83.9872 61.0951C78.1173 76.132 63.4576 86.3878 47.2074 86.7917C46.8614 86.7977 46.4851 86.9304 46.2362 86.4541C45.9934 85.9898 46.1815 85.7125 46.4304 85.3748C47.7598 83.542 48.1423 81.5222 47.4988 79.3456C47.347 78.8331 47.3289 78.61 47.9905 78.5256C49.7327 78.2905 51.4506 77.9468 53.1866 77.6634C57.4055 76.9701 60.3253 73.0511 59.7 68.903C59.0869 64.8151 55.2142 62.0356 50.9528 62.6989C46.2423 63.4284 41.5439 64.2363 36.8455 65.0141C33.689 65.5326 30.5324 66.0451 27.3819 66.5757C26.7809 66.6782 26.5139 66.5696 26.617 65.8763C26.8295 64.3931 26.9084 62.8978 27.1695 61.4267C27.5155 59.4551 27.7765 57.4775 27.6369 55.4758C27.5519 54.2459 27.558 52.9858 26.8599 51.8583C25.2148 49.2054 22.8535 47.885 19.7151 48.0297C16.8439 48.1624 14.8408 49.6456 13.5417 52.1296C12.8254 53.4862 12.3823 54.9573 11.8481 56.3862C11.0225 58.5809 10.197 60.7755 9.35322 63.0184C9.20146 62.8918 9.13467 62.8617 9.11039 62.8134C9.01327 62.6205 8.92224 62.4215 8.83726 62.2226C6.19062 55.9521 5.12831 49.4345 5.78997 42.6577C6.64588 33.8369 10.0574 26.1255 15.9698 19.4993C17.3114 17.9981 17.3174 16.756 15.9698 15.303C16.3462 15.3271 16.6072 15.1221 16.8621 14.8749C19.4056 12.421 22.2768 10.4253 25.3666 8.70701C25.5366 8.61054 26.3682 8.64671 25.8036 7.99555C27.1088 8.11011 28.2864 8.58039 29.3851 9.27375C30.0104 9.67168 30.672 9.90682 31.4308 9.76212C33.1426 9.43051 34.3385 7.47101 33.0273 5.51754L33.0091 5.51151ZM59.2691 16.4847C57.6058 16.5088 56.0033 16.7621 54.4735 17.3831C53.0288 17.9619 52.3854 19.3546 52.8892 20.7233C53.387 22.0919 54.771 22.719 56.2704 22.2668C56.8106 22.104 57.3509 21.8809 57.8972 21.8387C61.7275 21.5191 65.0116 22.5682 67.4215 25.7155C68.2531 26.8068 69.4975 27.1746 70.663 26.6741C72.2898 25.9748 72.7208 24.0755 71.5614 22.5019C68.5202 18.3659 64.1739 16.8585 59.2691 16.4908V16.4847ZM26.5381 26.8731C23.6183 26.8671 21.257 29.2004 21.2631 32.0884C21.2631 34.9704 23.6366 37.3338 26.5321 37.3459C29.4216 37.358 31.795 34.9945 31.795 32.1005C31.795 29.1823 29.4822 26.8852 26.5381 26.8791V26.8731ZM57.9336 39.8782C60.9324 39.8782 63.1783 37.6775 63.1905 34.7172C63.2026 31.7749 60.9323 29.4898 57.9822 29.4777C55.032 29.4657 52.7314 31.7387 52.7192 34.6689C52.7132 37.6413 54.9471 39.8782 57.9276 39.8842L57.9336 39.8782ZM40.9672 52.9194C42.2237 52.9194 43.4743 52.9315 44.7308 52.9194C46.3212 52.9013 47.4685 51.8161 47.4746 50.3329C47.4806 48.8437 46.3637 47.7283 44.7672 47.7102C42.1934 47.6861 39.6257 47.68 37.0519 47.7102C35.4675 47.7283 34.4113 48.8497 34.4356 50.3932C34.4598 51.8703 35.5282 52.8953 37.1126 52.9194C38.3995 52.9375 39.6864 52.9194 40.9672 52.9194Z" fill="#DDB7DB"/>
<path d="M15.9577 15.297C17.3053 16.7501 17.2931 17.9921 15.9577 19.4934C10.0452 26.1195 6.63373 33.8309 5.77782 42.6517C5.11616 49.4346 6.17847 55.9462 8.82512 62.2166C8.9101 62.4155 9.00112 62.6145 9.09825 62.8074C9.12253 62.8557 9.18932 62.8858 9.34107 63.0124C10.1848 60.7756 11.0165 58.5809 11.8359 56.3803C12.3701 54.9513 12.8133 53.4802 13.5296 52.1236C14.8347 49.6396 16.8379 48.1564 19.7031 48.0237C22.8414 47.879 25.2027 49.1994 26.8477 51.8523C27.5458 52.9737 27.5398 54.2339 27.6247 55.4698C27.7644 57.4716 27.5033 59.4492 27.1573 61.4207C26.8963 62.8918 26.8174 64.3931 26.605 65.8703C26.5079 66.5576 26.7689 66.6661 27.3698 66.5697C30.5203 66.0391 33.6768 65.5266 36.8334 65.0081C41.5378 64.2364 46.2302 63.4285 50.9407 62.6929C55.2081 62.0297 59.0749 64.8091 59.688 68.897C60.3132 73.0451 57.3933 76.9701 53.1745 77.6575C51.4445 77.9408 49.7206 78.2905 47.9784 78.5196C47.3167 78.6101 47.341 78.8271 47.4867 79.3396C48.1301 81.5162 47.7477 83.5299 46.4183 85.3689C46.1694 85.7125 45.9813 85.9838 46.2241 86.4481C46.4729 86.9244 46.8493 86.7918 47.1953 86.7857C63.4454 86.3878 78.1052 76.1321 83.9752 61.0891C85.8205 56.3561 86.816 51.4483 86.7735 46.3898C86.6036 25.8422 71.7496 9.77423 52.956 6.61491C49.3745 6.01198 45.7809 5.8914 42.1691 6.24109C39.8624 6.46418 38.8547 5.58391 38.7576 3.26868C39.2068 1.79151 39.8867 1.19462 41.4225 1.06198C54.3643 -0.0594629 65.9282 3.36515 75.8531 11.7277C85.0617 19.4934 90.3611 29.4657 91.6965 41.3675C94.2885 64.3931 79.2221 85.4593 56.6589 90.759C53.4417 91.5127 50.1758 91.8985 46.8736 91.9649C46.3758 91.9769 46.1451 92.1698 45.8295 92.5437C44.9493 93.5807 44.7794 94.6901 44.7976 96.0225C44.8461 98.9588 42.6547 101.726 39.6803 102.438C35.1094 103.529 30.4778 104.379 25.7854 104.825C24.8324 104.825 23.8794 104.831 22.9264 104.837L21.2327 104.825C18.0944 104.699 14.9683 104.421 11.8846 103.824C8.27274 103.125 5.56538 101.087 3.97497 97.7951C1.55293 92.7848 0.332823 87.467 0.351034 81.896C0.351034 80.2742 0.569567 78.6704 1.03698 77.1028C1.54081 75.4085 2.48775 74.0279 3.81714 72.8582C4.7034 72.0804 5.66248 71.369 6.22094 70.2656C6.52446 69.6687 6.49413 69.2165 6.16633 68.6377C2.58487 62.3372 0.624134 55.5543 0.363112 48.3433C-0.0496663 36.9058 3.34971 26.6682 10.5551 17.7027C11.0225 17.1178 11.5203 16.5571 12.0181 15.9904C13.2321 14.6217 14.3065 14.4288 15.9273 15.285L15.9577 15.297ZM24.3104 99.7365C28.4685 99.5195 33.3794 98.5126 38.2781 97.4334C39.4739 97.1681 40.0324 95.7994 39.3222 94.8529C38.2842 93.4601 38.8062 91.3499 40.5301 90.6565C41.8899 90.1139 41.9506 88.5583 40.7244 87.7504C39.6986 87.0751 39.1825 86.2009 39.3646 84.995C39.5346 83.8616 40.2691 83.2164 41.3557 82.8607C42.2966 82.5532 42.7458 81.7212 42.5091 80.8891C42.2359 79.9546 41.5743 79.6833 40.6334 79.7195C38.8548 79.7918 37.6892 78.5558 37.8471 76.8616C37.9685 75.5834 38.8426 74.7815 40.4877 74.5102C43.3043 74.0399 46.1209 73.5877 48.9314 73.1174C50.2001 72.9064 51.4809 72.7376 52.7192 72.406C54.0304 72.0563 54.7831 70.6816 54.4675 69.4939C54.17 68.3785 53.0288 67.6308 51.8815 67.8177C43.1828 69.2346 34.4902 70.6515 25.7915 72.0804C23.2359 72.5025 22.1736 71.8212 21.6395 69.313C21.1417 67.0098 21.4695 64.7127 21.7366 62.4276C22.0158 60.0521 22.6228 57.7067 22.4043 55.2769C22.3072 54.1736 21.8458 53.5586 20.7714 53.2752C19.7698 53.0099 18.8835 53.3415 18.3615 54.2519C18.0216 54.8428 17.7484 55.4819 17.5177 56.127C15.9577 60.5043 14.2459 64.8212 12.4612 69.1201C11.2654 71.996 10.0574 74.8297 7.39861 76.729C6.43951 77.4163 6.03884 78.4171 5.84459 79.5205C5.70497 80.3164 5.61391 81.1243 5.60784 81.9382C5.58963 86.6953 6.67019 91.2172 8.69766 95.504C9.58392 97.3791 11.1682 98.4584 13.2261 98.796C16.6072 99.3507 20.0126 99.628 24.3165 99.7365H24.3104Z" fill="#523951"/>
<path d="M33.009 5.51146C34.3202 7.47096 33.1304 9.42444 31.4125 9.75605C30.6537 9.90678 29.9921 9.66561 29.3668 9.26768C28.2681 8.57431 27.0905 8.10403 25.7854 7.98948C22.7927 7.8086 20.0732 8.38741 17.8272 10.5519C16.771 11.5708 15.1867 11.4683 14.1911 10.4615C13.1653 9.41841 13.1532 7.8508 14.2398 6.7776C16.2976 4.74574 18.7742 3.50372 21.6394 3.01535C25.0387 2.43654 28.3106 2.6958 31.3822 4.40208C31.9589 4.72163 32.5112 5.07132 33.0029 5.51146H33.009Z" fill="#523951"/>
<path d="M59.2691 16.4848C64.1678 16.8526 68.5202 18.3599 71.5614 22.4959C72.7148 24.0696 72.2899 25.9688 70.6631 26.6682C69.4976 27.1686 68.2592 26.7948 67.4215 25.7095C65.0116 22.5623 61.7276 21.5132 57.8972 21.8327C57.3449 21.881 56.8046 22.098 56.2705 22.2608C54.7772 22.713 53.3931 22.092 52.8893 20.7173C52.3915 19.3487 53.0349 17.9559 54.4736 17.3771C56.0033 16.7621 57.6059 16.5029 59.2691 16.4788V16.4848Z" fill="#523951"/>
<path d="M26.5381 26.8791C29.4822 26.8851 31.795 29.1883 31.795 32.1004C31.795 34.9945 29.4215 37.3579 26.5321 37.3459C23.6426 37.3338 21.2691 34.9703 21.2631 32.0884C21.2631 29.2003 23.6183 26.867 26.5381 26.8731V26.8791Z" fill="#523951"/>
<path d="M57.9336 39.8782C54.947 39.8782 52.7131 37.6353 52.7253 34.6629C52.7313 31.7327 55.0381 29.4657 57.9882 29.4717C60.9384 29.4838 63.2086 31.7688 63.1965 34.7111C63.1844 37.6715 60.9323 39.8782 57.9397 39.8721L57.9336 39.8782Z" fill="#523951"/>
<path d="M40.9671 52.9255C39.6802 52.9255 38.3933 52.9375 37.1125 52.9255C35.5342 52.9014 34.4597 51.8764 34.4355 50.3992C34.4112 48.8557 35.4675 47.7343 37.0518 47.7162C39.6256 47.6861 42.1933 47.6921 44.7671 47.7162C46.3636 47.7343 47.4806 48.8497 47.4745 50.3389C47.4684 51.8161 46.3211 52.9074 44.7307 52.9255C43.4742 52.9375 42.2236 52.9255 40.9671 52.9255Z" fill="#523951"/>
<path d="M24.3103 99.7365C20.0065 99.6279 16.601 99.3506 13.2199 98.7959C11.1621 98.4583 9.58382 97.3851 8.69149 95.5039C6.66402 91.2111 5.58346 86.6952 5.60167 81.9381C5.60167 81.1242 5.6988 80.3163 5.83842 79.5204C6.03267 78.4231 6.43334 77.4162 7.39244 76.7289C10.0452 74.8297 11.2592 71.9959 12.455 69.12C14.2397 64.8272 15.9454 60.5102 17.5115 56.127C17.7422 55.4818 18.0154 54.8488 18.3553 54.2519C18.8774 53.3354 19.7637 53.0098 20.7653 53.2751C21.8336 53.5585 22.295 54.1735 22.3981 55.2768C22.6167 57.7066 22.0097 60.046 21.7304 62.4275C21.4633 64.7186 21.1355 67.0097 21.6333 69.3129C22.1735 71.8211 23.2297 72.5024 25.7853 72.0803C34.478 70.6454 43.1767 69.2345 51.8754 67.8177C53.0288 67.6307 54.1639 68.3844 54.4613 69.4938C54.777 70.6815 54.0243 72.0562 52.7131 72.4059C51.4748 72.7315 50.1939 72.9003 48.9252 73.1174C46.1086 73.5876 43.2921 74.0398 40.4815 74.5101C38.8425 74.7875 37.9624 75.5833 37.841 76.8615C37.6831 78.5557 38.8486 79.7917 40.6272 79.7194C41.5681 79.6832 42.2358 79.9545 42.5029 80.889C42.7457 81.7211 42.2904 82.5531 41.3495 82.8606C40.269 83.2163 39.5346 83.8615 39.3585 84.995C39.1764 86.2008 39.6924 87.0751 40.7183 87.7503C41.9445 88.5643 41.8837 90.1138 40.524 90.6564C38.8 91.3438 38.278 93.46 39.316 94.8528C40.0262 95.7994 39.4678 97.168 38.2719 97.4333C33.3732 98.5125 28.4563 99.5194 24.3042 99.7365H24.3103Z" fill="#DDB7DB"/>
</svg>
