<svg width="55" height="39" viewBox="0 0 55 39" fill="none" xmlns="http://www.w3.org/2000/svg">
<rect x="19.0039" y="0.908691" width="4.00098" height="4.00098" fill="#666666"/>
<rect x="19.0039" y="7.8916" width="4.00098" height="4.00098" fill="#666666"/>
<rect x="19.0039" y="14.8745" width="4.00098" height="4.00098" fill="#666666"/>
<rect x="33.0273" y="0.908691" width="4.00098" height="4.00098" fill="#666666"/>
<rect x="33.0273" y="7.8916" width="4.00098" height="4.00098" fill="#666666"/>
<rect x="33.0273" y="14.8745" width="4.00098" height="4.00098" fill="#666666"/>
<rect x="26.0156" y="0.908691" width="4.00098" height="4.00098" fill="#666666"/>
<rect x="26.0156" y="7.8916" width="4.00098" height="4.00098" fill="#666666"/>
<rect x="26.0156" y="14.8745" width="4.00098" height="4.00098" fill="#666666"/>
<path d="M5.52148 33.8579C5.52148 33.6919 5.49544 33.5454 5.44336 33.4185C5.39453 33.2882 5.30664 33.1711 5.17969 33.0669C5.05599 32.9627 4.88346 32.8634 4.66211 32.769C4.44401 32.6746 4.16732 32.5786 3.83203 32.481C3.48047 32.3768 3.16309 32.2612 2.87988 32.1343C2.59668 32.0041 2.35417 31.856 2.15234 31.6899C1.95052 31.5239 1.7959 31.3335 1.68848 31.1187C1.58105 30.9038 1.52734 30.658 1.52734 30.3813C1.52734 30.1047 1.58431 29.8491 1.69824 29.6147C1.81217 29.3804 1.97493 29.1769 2.18652 29.0044C2.40137 28.8286 2.6569 28.6919 2.95312 28.5942C3.24935 28.4966 3.57975 28.4478 3.94434 28.4478C4.47819 28.4478 4.93066 28.5503 5.30176 28.7554C5.67611 28.9572 5.96094 29.2225 6.15625 29.5513C6.35156 29.8768 6.44922 30.2251 6.44922 30.5962H5.51172C5.51172 30.3293 5.45475 30.0933 5.34082 29.8882C5.22689 29.6799 5.05436 29.5171 4.82324 29.3999C4.59212 29.2795 4.29915 29.2192 3.94434 29.2192C3.60905 29.2192 3.33236 29.2697 3.11426 29.3706C2.89616 29.4715 2.7334 29.6082 2.62598 29.7808C2.52181 29.9533 2.46973 30.1502 2.46973 30.3716C2.46973 30.5213 2.50065 30.658 2.5625 30.7817C2.6276 30.9022 2.72689 31.0145 2.86035 31.1187C2.99707 31.2228 3.1696 31.3188 3.37793 31.4067C3.58952 31.4946 3.8418 31.5793 4.13477 31.6606C4.53841 31.7746 4.88672 31.9015 5.17969 32.0415C5.47266 32.1815 5.71354 32.3394 5.90234 32.5151C6.0944 32.6877 6.236 32.8846 6.32715 33.106C6.42155 33.3241 6.46875 33.5715 6.46875 33.8481C6.46875 34.1379 6.41016 34.3999 6.29297 34.6343C6.17578 34.8687 6.00814 35.0688 5.79004 35.2349C5.57194 35.4009 5.3099 35.5295 5.00391 35.6206C4.70117 35.7085 4.36263 35.7524 3.98828 35.7524C3.65951 35.7524 3.33561 35.7069 3.0166 35.6157C2.70085 35.5246 2.41276 35.3879 2.15234 35.2056C1.89518 35.0233 1.68848 34.7987 1.53223 34.5317C1.37923 34.2616 1.30273 33.9491 1.30273 33.5942H2.24023C2.24023 33.8384 2.28743 34.0483 2.38184 34.2241C2.47624 34.3966 2.60482 34.5399 2.76758 34.6538C2.93359 34.7677 3.12077 34.8524 3.3291 34.9077C3.54069 34.9598 3.76042 34.9858 3.98828 34.9858C4.31706 34.9858 4.59538 34.9403 4.82324 34.8491C5.05111 34.758 5.22363 34.6278 5.34082 34.4585C5.46126 34.2892 5.52148 34.089 5.52148 33.8579ZM7.29395 33.0718V32.9595C7.29395 32.5786 7.34928 32.2254 7.45996 31.8999C7.57064 31.5711 7.73014 31.2863 7.93848 31.0454C8.14681 30.8013 8.39909 30.6125 8.69531 30.479C8.99154 30.3423 9.32357 30.2739 9.69141 30.2739C10.0625 30.2739 10.3962 30.3423 10.6924 30.479C10.9919 30.6125 11.2458 30.8013 11.4541 31.0454C11.6657 31.2863 11.8268 31.5711 11.9375 31.8999C12.0482 32.2254 12.1035 32.5786 12.1035 32.9595V33.0718C12.1035 33.4526 12.0482 33.8058 11.9375 34.1313C11.8268 34.4569 11.6657 34.7417 11.4541 34.9858C11.2458 35.2267 10.9935 35.4155 10.6973 35.5522C10.4043 35.6857 10.0723 35.7524 9.70117 35.7524C9.33008 35.7524 8.99642 35.6857 8.7002 35.5522C8.40397 35.4155 8.15007 35.2267 7.93848 34.9858C7.73014 34.7417 7.57064 34.4569 7.45996 34.1313C7.34928 33.8058 7.29395 33.4526 7.29395 33.0718ZM8.19727 32.9595V33.0718C8.19727 33.3354 8.22819 33.5845 8.29004 33.8188C8.35189 34.05 8.44466 34.255 8.56836 34.4341C8.69531 34.6131 8.85319 34.7547 9.04199 34.8589C9.23079 34.9598 9.45052 35.0103 9.70117 35.0103C9.94857 35.0103 10.165 34.9598 10.3506 34.8589C10.5394 34.7547 10.6956 34.6131 10.8193 34.4341C10.943 34.255 11.0358 34.05 11.0977 33.8188C11.1628 33.5845 11.1953 33.3354 11.1953 33.0718V32.9595C11.1953 32.6991 11.1628 32.4533 11.0977 32.2222C11.0358 31.9878 10.9414 31.7811 10.8145 31.6021C10.6908 31.4198 10.5345 31.2765 10.3457 31.1724C10.1602 31.0682 9.94206 31.0161 9.69141 31.0161C9.44401 31.0161 9.22591 31.0682 9.03711 31.1724C8.85156 31.2765 8.69531 31.4198 8.56836 31.6021C8.44466 31.7811 8.35189 31.9878 8.29004 32.2222C8.22819 32.4533 8.19727 32.6991 8.19727 32.9595ZM14.2178 28.1548V35.6548H13.3096V28.1548H14.2178ZM18.9004 34.4341V30.3716H19.8086V35.6548H18.9443L18.9004 34.4341ZM19.0713 33.3208L19.4473 33.311C19.4473 33.6626 19.4098 33.9881 19.335 34.2876C19.2633 34.5838 19.1462 34.841 18.9834 35.0591C18.8206 35.2772 18.6074 35.4481 18.3438 35.5718C18.0801 35.6922 17.7594 35.7524 17.3818 35.7524C17.1247 35.7524 16.8887 35.715 16.6738 35.6401C16.4622 35.5653 16.2799 35.4497 16.127 35.2935C15.974 35.1372 15.8551 34.9338 15.7705 34.6831C15.6891 34.4325 15.6484 34.1313 15.6484 33.7798V30.3716H16.5518V33.7896C16.5518 34.0272 16.5778 34.2241 16.6299 34.3804C16.6852 34.5334 16.7585 34.6554 16.8496 34.7466C16.944 34.8345 17.0482 34.8963 17.1621 34.9321C17.2793 34.9679 17.3997 34.9858 17.5234 34.9858C17.9076 34.9858 18.2119 34.9126 18.4365 34.7661C18.6611 34.6164 18.8223 34.4162 18.9199 34.1655C19.0208 33.9116 19.0713 33.63 19.0713 33.3208ZM23.2998 35.0103C23.5146 35.0103 23.7132 34.9663 23.8955 34.8784C24.0778 34.7905 24.2275 34.6701 24.3447 34.5171C24.4619 34.3608 24.5286 34.1834 24.5449 33.9849H25.4043C25.388 34.2974 25.2822 34.5887 25.0869 34.8589C24.8949 35.1258 24.6426 35.3423 24.3301 35.5083C24.0176 35.6711 23.6742 35.7524 23.2998 35.7524C22.9027 35.7524 22.556 35.6825 22.2598 35.5425C21.9668 35.4025 21.7227 35.2104 21.5273 34.9663C21.3353 34.7222 21.1904 34.4422 21.0928 34.1265C20.9984 33.8075 20.9512 33.4705 20.9512 33.1157V32.9106C20.9512 32.5558 20.9984 32.2205 21.0928 31.9048C21.1904 31.5858 21.3353 31.3042 21.5273 31.0601C21.7227 30.8159 21.9668 30.6239 22.2598 30.4839C22.556 30.3439 22.9027 30.2739 23.2998 30.2739C23.7132 30.2739 24.0745 30.3586 24.3838 30.5278C24.693 30.6938 24.9355 30.9217 25.1113 31.2114C25.2904 31.4979 25.388 31.8234 25.4043 32.188H24.5449C24.5286 31.9699 24.4668 31.7729 24.3594 31.5972C24.2552 31.4214 24.112 31.2814 23.9297 31.1772C23.7507 31.0698 23.5407 31.0161 23.2998 31.0161C23.0231 31.0161 22.7904 31.0715 22.6016 31.1821C22.416 31.2896 22.2679 31.436 22.1572 31.6216C22.0498 31.8039 21.9717 32.0073 21.9229 32.2319C21.8773 32.4533 21.8545 32.6795 21.8545 32.9106V33.1157C21.8545 33.3468 21.8773 33.5747 21.9229 33.7993C21.9684 34.0239 22.0449 34.2274 22.1523 34.4097C22.263 34.592 22.4111 34.7384 22.5967 34.8491C22.7855 34.9565 23.0199 35.0103 23.2998 35.0103ZM22.8018 35.7036H23.4512L23.3926 35.9624C23.5814 35.995 23.7523 36.0731 23.9053 36.1968C24.0615 36.3205 24.1396 36.5239 24.1396 36.8071C24.1396 36.9601 24.1071 37.0985 24.042 37.2222C23.9801 37.3491 23.8874 37.4565 23.7637 37.5444C23.64 37.6356 23.4854 37.7056 23.2998 37.7544C23.1175 37.8032 22.9043 37.8276 22.6602 37.8276L22.626 37.3052C22.7757 37.3052 22.9108 37.2889 23.0312 37.2563C23.1549 37.2238 23.2526 37.1717 23.3242 37.1001C23.3991 37.0285 23.4365 36.9357 23.4365 36.8218C23.4365 36.7144 23.4089 36.6297 23.3535 36.5679C23.2982 36.506 23.2119 36.4588 23.0947 36.4263C22.9808 36.397 22.8327 36.3758 22.6504 36.3628L22.8018 35.7036ZM26.1807 33.0718V32.9595C26.1807 32.5786 26.236 32.2254 26.3467 31.8999C26.4574 31.5711 26.6169 31.2863 26.8252 31.0454C27.0335 30.8013 27.2858 30.6125 27.582 30.479C27.8783 30.3423 28.2103 30.2739 28.5781 30.2739C28.9492 30.2739 29.2829 30.3423 29.5791 30.479C29.8786 30.6125 30.1325 30.8013 30.3408 31.0454C30.5524 31.2863 30.7135 31.5711 30.8242 31.8999C30.9349 32.2254 30.9902 32.5786 30.9902 32.9595V33.0718C30.9902 33.4526 30.9349 33.8058 30.8242 34.1313C30.7135 34.4569 30.5524 34.7417 30.3408 34.9858C30.1325 35.2267 29.8802 35.4155 29.584 35.5522C29.291 35.6857 28.959 35.7524 28.5879 35.7524C28.2168 35.7524 27.8831 35.6857 27.5869 35.5522C27.2907 35.4155 27.0368 35.2267 26.8252 34.9858C26.6169 34.7417 26.4574 34.4569 26.3467 34.1313C26.236 33.8058 26.1807 33.4526 26.1807 33.0718ZM27.084 32.9595V33.0718C27.084 33.3354 27.1149 33.5845 27.1768 33.8188C27.2386 34.05 27.3314 34.255 27.4551 34.4341C27.582 34.6131 27.7399 34.7547 27.9287 34.8589C28.1175 34.9598 28.3372 35.0103 28.5879 35.0103C28.8353 35.0103 29.0518 34.9598 29.2373 34.8589C29.4261 34.7547 29.5824 34.6131 29.7061 34.4341C29.8298 34.255 29.9225 34.05 29.9844 33.8188C30.0495 33.5845 30.082 33.3354 30.082 33.0718V32.9595C30.082 32.6991 30.0495 32.4533 29.9844 32.2222C29.9225 31.9878 29.8281 31.7811 29.7012 31.6021C29.5775 31.4198 29.4212 31.2765 29.2324 31.1724C29.0469 31.0682 28.8288 31.0161 28.5781 31.0161C28.3307 31.0161 28.1126 31.0682 27.9238 31.1724C27.7383 31.2765 27.582 31.4198 27.4551 31.6021C27.3314 31.7811 27.2386 31.9878 27.1768 32.2222C27.1149 32.4533 27.084 32.6991 27.084 32.9595ZM29.6621 28.2524L30.2725 28.3062C30.2725 28.5438 30.2253 28.7521 30.1309 28.9312C30.0365 29.1102 29.9095 29.2485 29.75 29.3462C29.5938 29.4438 29.4163 29.4927 29.2178 29.4927C29.0518 29.4927 28.915 29.4699 28.8076 29.4243C28.7002 29.3755 28.6042 29.3218 28.5195 29.2632C28.4349 29.2013 28.3454 29.1476 28.251 29.1021C28.1598 29.0532 28.0459 29.0288 27.9092 29.0288C27.7725 29.0288 27.6569 29.0809 27.5625 29.1851C27.4714 29.2892 27.4258 29.4178 27.4258 29.5708L26.8154 29.5415C26.8154 29.3039 26.861 29.0955 26.9521 28.9165C27.0465 28.7342 27.1735 28.5926 27.333 28.4917C27.4925 28.3875 27.6699 28.3354 27.8652 28.3354C28.0052 28.3354 28.1273 28.3599 28.2314 28.4087C28.3389 28.4543 28.4398 28.508 28.5342 28.5698C28.6286 28.6284 28.7262 28.6821 28.8271 28.731C28.9281 28.7765 29.0436 28.7993 29.1738 28.7993C29.3105 28.7993 29.4261 28.7472 29.5205 28.6431C29.6149 28.5356 29.6621 28.4054 29.6621 28.2524ZM34.3154 35.7524C33.9476 35.7524 33.6139 35.6906 33.3145 35.5669C33.0182 35.4399 32.7627 35.2625 32.5479 35.0347C32.3363 34.8068 32.1735 34.5366 32.0596 34.2241C31.9456 33.9116 31.8887 33.5698 31.8887 33.1987V32.9937C31.8887 32.564 31.9521 32.1815 32.0791 31.8462C32.2061 31.5076 32.3786 31.2212 32.5967 30.9868C32.8148 30.7524 33.0622 30.575 33.3389 30.4546C33.6156 30.3341 33.902 30.2739 34.1982 30.2739C34.5758 30.2739 34.9014 30.339 35.1748 30.4692C35.4515 30.5994 35.6777 30.7817 35.8535 31.0161C36.0293 31.2472 36.1595 31.5207 36.2441 31.8364C36.3288 32.1489 36.3711 32.4907 36.3711 32.8618V33.2671H32.4258V32.5298H35.4678V32.4614C35.4548 32.2271 35.4059 31.9992 35.3213 31.7778C35.2399 31.5565 35.1097 31.3742 34.9307 31.231C34.7516 31.0877 34.5075 31.0161 34.1982 31.0161C33.9932 31.0161 33.8044 31.0601 33.6318 31.1479C33.4593 31.2326 33.3112 31.3595 33.1875 31.5288C33.0638 31.6981 32.9678 31.9048 32.8994 32.1489C32.8311 32.3931 32.7969 32.6746 32.7969 32.9937V33.1987C32.7969 33.4494 32.8311 33.6854 32.8994 33.9067C32.971 34.1248 33.0736 34.3169 33.207 34.4829C33.3438 34.6489 33.5081 34.7791 33.7002 34.8735C33.8955 34.9679 34.1169 35.0151 34.3643 35.0151C34.6833 35.0151 34.9535 34.95 35.1748 34.8198C35.3962 34.6896 35.5898 34.5155 35.7559 34.2974L36.3027 34.7319C36.1888 34.9045 36.0439 35.0688 35.8682 35.2251C35.6924 35.3813 35.4759 35.5083 35.2188 35.606C34.9648 35.7036 34.6637 35.7524 34.3154 35.7524ZM40.502 34.2534C40.502 34.1232 40.4727 34.0028 40.4141 33.8921C40.3587 33.7782 40.2432 33.6756 40.0674 33.5845C39.8949 33.4901 39.6344 33.4087 39.2861 33.3403C38.9932 33.2785 38.7279 33.2052 38.4902 33.1206C38.2559 33.036 38.0557 32.9334 37.8896 32.813C37.7269 32.6925 37.6016 32.5509 37.5137 32.3882C37.4258 32.2254 37.3818 32.035 37.3818 31.8169C37.3818 31.6086 37.4274 31.4116 37.5186 31.2261C37.613 31.0405 37.7448 30.8761 37.9141 30.7329C38.0866 30.5897 38.2933 30.4774 38.5342 30.396C38.7751 30.3146 39.0436 30.2739 39.3398 30.2739C39.763 30.2739 40.1243 30.3488 40.4238 30.4985C40.7233 30.6483 40.9528 30.8485 41.1123 31.0991C41.2718 31.3465 41.3516 31.6216 41.3516 31.9243H40.4482C40.4482 31.7778 40.4043 31.6362 40.3164 31.4995C40.2318 31.3595 40.1064 31.244 39.9404 31.1528C39.7777 31.0617 39.5775 31.0161 39.3398 31.0161C39.0892 31.0161 38.8857 31.0552 38.7295 31.1333C38.5765 31.2082 38.4642 31.3042 38.3926 31.4214C38.3242 31.5386 38.29 31.6623 38.29 31.7925C38.29 31.8901 38.3063 31.978 38.3389 32.0562C38.3747 32.131 38.4365 32.201 38.5244 32.2661C38.6123 32.328 38.736 32.3866 38.8955 32.4419C39.055 32.4972 39.2585 32.5526 39.5059 32.6079C39.9388 32.7056 40.2952 32.8228 40.5752 32.9595C40.8551 33.0962 41.0635 33.2638 41.2002 33.4624C41.3369 33.661 41.4053 33.9019 41.4053 34.1851C41.4053 34.4162 41.3564 34.6278 41.2588 34.8198C41.1644 35.0119 41.026 35.1779 40.8438 35.3179C40.6647 35.4546 40.4499 35.562 40.1992 35.6401C39.9518 35.715 39.6735 35.7524 39.3643 35.7524C38.8988 35.7524 38.5049 35.6694 38.1826 35.5034C37.8604 35.3374 37.6162 35.1226 37.4502 34.8589C37.2842 34.5952 37.2012 34.3169 37.2012 34.0239H38.1094C38.1224 34.2713 38.194 34.4683 38.3242 34.6147C38.4544 34.758 38.6139 34.8605 38.8027 34.9224C38.9915 34.981 39.1787 35.0103 39.3643 35.0103C39.6117 35.0103 39.8184 34.9777 39.9844 34.9126C40.1536 34.8475 40.2822 34.758 40.3701 34.644C40.458 34.5301 40.502 34.3999 40.502 34.2534Z" fill="#666666"/>
<path d="M44.6705 29.3009L49.0861 33.717C49.1642 33.7951 49.2909 33.7951 49.369 33.717L53.785 29.3009C53.911 29.1749 53.8218 28.9595 53.6436 28.9595H44.8119C44.6337 28.9595 44.5445 29.1749 44.6705 29.3009Z" fill="#666666"/>
</svg>
