<svg width="21" height="19" viewBox="0 0 21 19" fill="none" xmlns="http://www.w3.org/2000/svg">
<path fill-rule="evenodd" clip-rule="evenodd" d="M5.65892 4.93408C5.66006 4.85816 5.66337 4.77571 5.66979 4.68779C5.70099 4.26053 5.80801 3.67508 6.122 3.08075C6.79579 1.80541 8.21323 0.851562 10.7574 0.851562C13.3016 0.851562 14.719 1.80541 15.3928 3.08075C15.7068 3.67508 15.8138 4.26054 15.845 4.68779C15.8514 4.77571 15.8548 4.85816 15.8559 4.93408H20.6897V8.92383C20.6897 10.5807 19.3466 11.9238 17.6897 11.9238H3.67505C2.0182 11.9238 0.675049 10.5807 0.675049 8.92383V4.93408H5.65892ZM13.8553 4.93408C13.8545 4.90997 13.8532 4.88419 13.8512 4.85695C13.8363 4.65244 13.7859 4.39554 13.6549 4.14752C13.4386 3.73816 12.8154 3.00731 10.7574 3.00731C8.6994 3.00731 8.07623 3.73816 7.85996 4.14752C7.72893 4.39554 7.67856 4.65244 7.66362 4.85695C7.66164 4.88419 7.66032 4.90997 7.65951 4.93408H13.8553Z" fill="#666666"/>
<path d="M0.675049 11.9238C0.675049 11.9238 1.28281 12.9659 10.6824 12.9659C20.0819 12.9659 20.6897 11.9238 20.6897 11.9238V15.9136C20.6897 17.5704 19.3466 18.9136 17.6897 18.9136H3.67505C2.0182 18.9136 0.675049 17.5704 0.675049 15.9136V11.9238Z" fill="#666666"/>
</svg>
